<svg width="389" height="79" viewBox="0 0 389 79" xmlns="http://www.w3.org/2000/svg">
<path d="M214.085 58.3169C211.687 64.8756 207.177 70.4515 201.265 74.1681C195.353 77.8848 188.373 79.5315 181.423 78.8494C174.473 78.1672 167.947 75.195 162.87 70.3998C157.793 65.6046 154.454 59.2583 153.377 52.3585C152.3 45.4587 153.546 38.3966 156.92 32.2823C160.293 26.1679 165.603 21.3479 172.015 18.58C178.426 15.8121 185.575 15.2531 192.339 16.991C199.103 18.7289 205.097 22.6651 209.38 28.1808L200.617 34.9855C197.842 31.4125 193.959 28.8627 189.578 27.737C185.197 26.6112 180.565 26.9733 176.412 28.7663C172.259 30.5593 168.82 33.6816 166.634 37.6423C164.449 41.6031 163.641 46.1777 164.339 50.6472C165.037 55.1168 167.2 59.2277 170.489 62.3339C173.777 65.4402 178.005 67.3655 182.507 67.8074C187.009 68.2492 191.53 67.1826 195.36 64.775C199.19 62.3674 202.111 58.7555 203.664 54.5069L214.085 58.3169Z" fill="white"/>
<path d="M268 53C268 67.3594 256.359 79 242 79C227.641 79 216 67.3594 216 53C216 38.6406 227.641 27 242 27C256.359 27 268 38.6406 268 53ZM225.158 53C225.158 62.3017 232.698 69.8422 242 69.8422C251.302 69.8422 258.842 62.3017 258.842 53C258.842 43.6983 251.302 36.1578 242 36.1578C232.698 36.1578 225.158 43.6983 225.158 53Z" fill="white"/>
<mask id="mask0_2_74" style="mask-type:alpha" maskUnits="userSpaceOnUse" x="269" y="52" width="52" height="27">
<rect x="269" y="52" width="52" height="27" fill="#C4C4C4"/>
</mask>
<g mask="url(#mask0_2_74)">
<path d="M321 53C321 67.3594 309.359 79 295 79C280.641 79 269 67.3594 269 53C269 38.6406 280.641 27 295 27C309.359 27 321 38.6406 321 53ZM278.158 53C278.158 62.3017 285.698 69.8422 295 69.8422C304.302 69.8422 311.842 62.3017 311.842 53C311.842 43.6983 304.302 36.1578 295 36.1578C285.698 36.1578 278.158 43.6983 278.158 53Z" fill="white"/>
</g>
<mask id="mask1_2_74" style="mask-type:alpha" maskUnits="userSpaceOnUse" x="316" y="52" width="52" height="27">
<rect x="368" y="79" width="52" height="27" transform="rotate(-180 368 79)" fill="#C4C4C4"/>
</mask>
<g mask="url(#mask1_2_74)">
<path d="M316 78C316 63.6406 327.641 52 342 52C356.359 52 368 63.6406 368 78C368 92.3594 356.359 104 342 104C327.641 104 316 92.3594 316 78ZM358.842 78C358.842 68.6983 351.302 61.1578 342 61.1578C332.698 61.1578 325.158 68.6983 325.158 78C325.158 87.3017 332.698 94.8422 342 94.8422C351.302 94.8422 358.842 87.3017 358.842 78Z" fill="white"/>
</g>
<rect x="370" y="21" width="10" height="58" fill="white"/>
<rect x="389" y="27" width="10" height="19" transform="rotate(90 389 27)" fill="white"/>
<mask id="mask2_2_74" style="mask-type:alpha" maskUnits="userSpaceOnUse" x="97" y="23" width="29" height="56">
<rect x="97" y="79" width="55.8519" height="29" transform="rotate(-90 97 79)" fill="#C4C4C4"/>
</mask>
<g mask="url(#mask2_2_74)">
<path d="M98.0741 23.1481C113.497 23.1481 126 35.651 126 51.0741C126 66.4971 113.497 79 98.0741 79C82.651 79 70.1481 66.4971 70.1481 51.0741C70.1481 35.651 82.651 23.1481 98.0741 23.1481ZM98.0741 69.1638C108.065 69.1638 116.164 61.0648 116.164 51.0741C116.164 41.0834 108.065 32.9843 98.0741 32.9843C88.0834 32.9843 79.9843 41.0834 79.9843 51.0741C79.9843 61.0648 88.0834 69.1638 98.0741 69.1638Z" fill="white"/>
</g>
<mask id="mask3_2_74" style="mask-type:alpha" maskUnits="userSpaceOnUse" x="116" y="23" width="29" height="56">
<rect width="55.8519" height="29" transform="matrix(-4.37114e-08 -1 -1 4.37114e-08 145 78.8519)" fill="#C4C4C4"/>
</mask>
<g mask="url(#mask3_2_74)">
<path d="M143.926 23C128.503 23 116 35.5029 116 50.9259C116 66.349 128.503 78.8519 143.926 78.8519C159.349 78.8519 171.852 66.349 171.852 50.9259C171.852 35.5029 159.349 23 143.926 23ZM143.926 69.0157C133.935 69.0157 125.836 60.9166 125.836 50.9259C125.836 40.9352 133.935 32.8362 143.926 32.8362C153.917 32.8362 162.016 40.9352 162.016 50.9259C162.016 60.9166 153.917 69.0157 143.926 69.0157Z" fill="white"/>
</g>
<rect width="10" height="79" fill="white"/>
<rect width="52" height="11" fill="white"/>
<rect width="6.95486" height="56" transform="matrix(1 -8.57732e-08 -8.91041e-08 -1 15 79)" fill="white"/>
<rect width="36.8608" height="7.79746" transform="matrix(1 -8.57734e-08 -8.91038e-08 -1 15 79)" fill="white"/>
<rect width="6.95486" height="56" transform="matrix(1 -8.57733e-08 -8.9104e-08 -1 58 79)" fill="white"/>
<rect width="36.8608" height="7.79746" transform="matrix(1 -8.57734e-08 -8.91039e-08 -1 58 79)" fill="white"/>
<rect width="36.8608" height="7.79746" transform="matrix(1 -8.57732e-08 -8.91041e-08 -1 58 30.7975)" fill="white"/>
<rect width="36.8608" height="7.79746" transform="matrix(1 -8.57734e-08 -8.91038e-08 -1 58 54.7975)" fill="white"/>
</svg>
