<svg width="238" height="154" viewBox="0 0 238 154" fill="none" xmlns="http://www.w3.org/2000/svg">
<g clip-path="url(#clip0_2_44)">
<path d="M61.0845 133.317C58.6865 139.876 54.177 145.451 48.2648 149.168C42.3527 152.885 35.3731 154.531 28.4231 153.849C21.4732 153.167 14.9469 150.195 9.87016 145.4C4.79342 140.605 1.45405 134.258 0.376943 127.359C-0.700163 120.459 0.546065 113.397 3.91974 107.282C7.29342 101.168 12.6033 96.3479 19.0146 93.58C25.426 90.8121 32.5754 90.2531 39.3391 91.991C46.1027 93.7289 52.0971 97.6651 56.3801 103.181L47.6167 109.985C44.8423 106.413 40.9593 103.863 36.578 102.737C32.1966 101.611 27.5654 101.973 23.4123 103.766C19.2591 105.559 15.8195 108.682 13.6342 112.642C11.4488 116.603 10.6415 121.178 11.3392 125.647C12.0369 130.117 14.2001 134.228 17.4887 137.334C20.7773 140.44 25.0048 142.366 29.5069 142.807C34.0089 143.249 38.5301 142.183 42.3599 139.775C46.1896 137.367 49.1108 133.755 50.6642 129.507L61.0845 133.317Z" fill="black"/>
<path d="M115 128C115 142.359 103.359 154 89 154C74.6406 154 63 142.359 63 128C63 113.641 74.6406 102 89 102C103.359 102 115 113.641 115 128ZM72.1578 128C72.1578 137.302 79.6983 144.842 89 144.842C98.3017 144.842 105.842 137.302 105.842 128C105.842 118.698 98.3017 111.158 89 111.158C79.6983 111.158 72.1578 118.698 72.1578 128Z" fill="black"/>
<mask id="mask0_2_44" style="mask-type:alpha" maskUnits="userSpaceOnUse" x="116" y="127" width="52" height="27">
<rect x="116" y="127" width="52" height="27" fill="#C4C4C4"/>
</mask>
<g mask="url(#mask0_2_44)">
<path d="M168 128C168 142.359 156.359 154 142 154C127.641 154 116 142.359 116 128C116 113.641 127.641 102 142 102C156.359 102 168 113.641 168 128ZM125.158 128C125.158 137.302 132.698 144.842 142 144.842C151.302 144.842 158.842 137.302 158.842 128C158.842 118.698 151.302 111.158 142 111.158C132.698 111.158 125.158 118.698 125.158 128Z" fill="black"/>
</g>
<mask id="mask1_2_44" style="mask-type:alpha" maskUnits="userSpaceOnUse" x="97" y="22" width="29" height="56">
<rect x="97" y="78" width="55.8519" height="29" transform="rotate(-90 97 78)" fill="#C4C4C4"/>
</mask>
<g mask="url(#mask1_2_44)">
<path d="M98.0741 22.1481C113.497 22.1481 126 34.651 126 50.0741C126 65.4971 113.497 78 98.0741 78C82.651 78 70.1481 65.4971 70.1481 50.0741C70.1481 34.651 82.651 22.1481 98.0741 22.1481ZM98.0741 68.1638C108.065 68.1638 116.164 60.0648 116.164 50.0741C116.164 40.0834 108.065 31.9843 98.0741 31.9843C88.0834 31.9843 79.9843 40.0834 79.9843 50.0741C79.9843 60.0648 88.0834 68.1638 98.0741 68.1638Z" fill="black"/>
</g>
<mask id="mask2_2_44" style="mask-type:alpha" maskUnits="userSpaceOnUse" x="116" y="22" width="29" height="56">
<rect width="55.8519" height="29" transform="matrix(-4.37114e-08 -1 -1 4.37114e-08 145 77.8519)" fill="#C4C4C4"/>
</mask>
<g mask="url(#mask2_2_44)">
<path d="M143.926 22C128.503 22 116 34.5029 116 49.9259C116 65.349 128.503 77.8519 143.926 77.8519C159.349 77.8519 171.852 65.349 171.852 49.9259C171.852 34.5029 159.349 22 143.926 22ZM143.926 68.0157C133.935 68.0157 125.836 59.9166 125.836 49.9259C125.836 39.9352 133.935 31.8362 143.926 31.8362C153.917 31.8362 162.016 39.9352 162.016 49.9259C162.016 59.9166 153.917 68.0157 143.926 68.0157Z" fill="black"/>
</g>
<mask id="mask3_2_44" style="mask-type:alpha" maskUnits="userSpaceOnUse" x="163" y="127" width="52" height="27">
<rect x="215" y="154" width="52" height="27" transform="rotate(-180 215 154)" fill="#C4C4C4"/>
</mask>
<g mask="url(#mask3_2_44)">
<path d="M163 153C163 138.641 174.641 127 189 127C203.359 127 215 138.641 215 153C215 167.359 203.359 179 189 179C174.641 179 163 167.359 163 153ZM205.842 153C205.842 143.698 198.302 136.158 189 136.158C179.698 136.158 172.158 143.698 172.158 153C172.158 162.302 179.698 169.842 189 169.842C198.302 169.842 205.842 162.302 205.842 153Z" fill="black"/>
</g>
<rect x="217" y="96" width="10" height="58" fill="black"/>
<rect x="236" y="102" width="10" height="19" transform="rotate(90 236 102)" fill="black"/>
<rect y="-1" width="10" height="79" fill="black"/>
<rect y="-1" width="52" height="11" fill="black"/>
<rect width="6.95486" height="56" transform="matrix(1 -8.57732e-08 -8.91041e-08 -1 15 78)" fill="black"/>
<rect width="36.8608" height="7.79746" transform="matrix(1 -8.57734e-08 -8.91039e-08 -1 15 78)" fill="black"/>
<rect width="6.95486" height="56" transform="matrix(1 -8.57733e-08 -8.91039e-08 -1 58 78)" fill="black"/>
<rect width="36.8608" height="7.79746" transform="matrix(1 -8.57734e-08 -8.91039e-08 -1 58 78)" fill="black"/>
<rect width="36.8608" height="7.79746" transform="matrix(1 -8.57732e-08 -8.9104e-08 -1 58 29.7975)" fill="black"/>
<rect width="36.8608" height="7.79746" transform="matrix(1 -8.57734e-08 -8.91039e-08 -1 58 53.7975)" fill="black"/>
</g>
<defs>
<clipPath id="clip0_2_44">
<rect width="238" height="154" fill="white"/>
</clipPath>
</defs>
</svg>
